<svg width="150" height="150" xmlns="http://www.w3.org/2000/svg" version="1.0">
 <g id="Layer_1">
  <title>Layer 1</title>
  <svg version="1" x="-325" y="-225" width="800" height="600" viewBox="0 0 340.000000 250.000000" preserveAspectRatio="xMidYMid meet" color-interpolation-filters="sRGB" id="svg_15" xmlns="http://www.w3.org/2000/svg" xmlns:xlink="http://www.w3.org/1999/xlink">
   <g class="imagesvg isNoFont" id="svg_14">
    <g id="svg_13">
     <rect fill="#333" fill-opacity="0" stroke-width="2" x="140" y="95.0114" width="60" height="59.97721" class="image-rect" id="svg_1"/>
     <svg x="140" y="95.0114" width="60" height="59.97721" filtersec="colorsb1834615338" class="image-svg-svg primary" id="svg_11">
      <svg viewBox="-0.02439192868769169 -0.00439166696742177 206.4888916015625 206.41061401367188" id="svg_9" xmlns="http://www.w3.org/2000/svg">
       <g fill-rule="evenodd" id="svg_8">
        <path d="m176.24,176.18a102.91,102.91 0 0 1 -76.44,30.16c-8.75,-0.29 -10.94,-10.72 -6.79,-17c17.92,-27.07 75.72,-28.09 101.23,-60a56.23,56.23 0 0 0 10.57,-21.88c0.56,-2.21 1.26,-4.67 1.63,-6.42a102.92,102.92 0 0 1 -30.2,75.1l0,0.04z" fill="#03b2de" opacity="0.48" id="svg_2"/>
        <path d="m176.18,176.24a102.92,102.92 0 0 0 30.16,-76.44c-0.29,-8.76 -10.73,-10.94 -17,-6.79c-21.13,13.99 -26.34,52.29 -42.84,80.55c-9.44,16.21 -25.92,31.19 -45.38,32.82a102.78,102.78 0 0 0 75.06,-30.14z" fill="#8e03ff" opacity="0.48" id="svg_3"/>
        <path d="m30.22,30.28a102.94,102.94 0 0 1 76.44,-30.16c8.77,0.29 10.94,10.73 6.79,17c-17.91,27.07 -75.72,28.09 -101.23,60a56.23,56.23 0 0 0 -10.57,21.88c-0.56,2.17 -1.25,4.63 -1.65,6.38a102.93,102.93 0 0 1 30.2,-75.1l0.02,0z" fill="#00deb9" opacity="0.48" id="svg_4"/>
        <path d="m30.28,30.22a102.94,102.94 0 0 0 -30.16,76.44c0.29,8.77 10.73,10.94 17,6.79c27.07,-17.91 28.09,-75.72 60,-101.23a56.23,56.23 0 0 1 21.88,-10.57c2.21,-0.56 4.67,-1.25 6.42,-1.63a102.93,102.93 0 0 0 -75.1,30.2l-0.04,0z" fill="#1d88e1" opacity="0.48" id="svg_5"/>
        <path d="m44,187.8c-32.11,-55.4 181.83,-82.46 145,-142a103.71,103.71 0 0 0 -26.5,-27.07c25.84,44.36 -100,69.18 -138.89,106.54c-11.31,10.85 -12.71,26.36 -3.61,39.07a103.82,103.82 0 0 0 24,23.46z" fill="#8e03ff" opacity="0.48" id="svg_6"/>
        <path d="m187.75,44c-51.41,-29.78 -77.2,148.08 -127.43,150c-4.47,0.18 -9.6,-2 -14.56,-5a103.71,103.71 0 0 1 -27.07,-26.5c52.81,30.78 77.94,-153.5 129.48,-149.96c4.69,0.32 10.6,3.57 16.11,7.51a104.32,104.32 0 0 1 23.47,24l0,-0.05z" fill="#1d88e1" opacity="0.48" id="svg_7"/>
       </g>
      </svg>
     </svg>
    </g>
   </g>
  </svg>
 </g>
</svg>